<?xml version="1.0" encoding="UTF-8" standalone="no"?>
<svg
   xmlns:dc="http://purl.org/dc/elements/1.1/"
   xmlns:cc="http://creativecommons.org/ns#"
   xmlns:rdf="http://www.w3.org/1999/02/22-rdf-syntax-ns#"
   xmlns:svg="http://www.w3.org/2000/svg"
   xmlns="http://www.w3.org/2000/svg"
   xmlns:sodipodi="http://sodipodi.sourceforge.net/DTD/sodipodi-0.dtd"
   xmlns:inkscape="http://www.inkscape.org/namespaces/inkscape"
   width="427mm"
   height="241mm"
   viewBox="0 0 427 241"
   version="1.1"
   id="svg8"
   inkscape:version="1.0 (4035a4fb49, 2020-05-01)"
   sodipodi:docname="gallery.svg">
  <defs
     id="defs2">
    <inkscape:path-effect
       effect="bspline"
       id="path-effect849"
       is_visible="true"
       lpeversion="1"
       weight="33.333333"
       steps="2"
       helper_size="0"
       apply_no_weight="true"
       apply_with_weight="true"
       only_selected="false" />
    <clipPath
       clipPathUnits="userSpaceOnUse"
       id="clipPath851">
      <path
         style="fill:none;stroke:#000000;stroke-width:0.264583px;stroke-linecap:butt;stroke-linejoin:miter;stroke-opacity:1"
         d="m -270.78703,584.05287 c -0.0716,-1.75088 -0.21474,-5.2529 -0.008,-7.97284 0.2068,-2.71994 0.76361,-4.65762 0.63001,-8.53301 -0.13359,-3.8754 -0.95766,-9.6884 -1.52839,-14.17173 -0.57073,-4.48333 -0.88808,-7.63671 -0.92078,-11.54436 -0.0327,-3.90766 0.21928,-8.56927 0.15629,-21.57816 -0.063,-13.0089 -0.44095,-34.36411 0.43392,-55.42417 0.87487,-21.06007 3.00253,-41.8237 4.74847,-53.3264 1.74594,-11.50269 3.1101,-13.74381 7.1053,-19.00579 3.9952,-5.26197 10.62113,-13.54439 14.66497,-19.04986 4.04385,-5.50547 5.50544,-8.23377 6.65039,-10.54803 1.14496,-2.31425 1.97319,-4.21433 4.50682,-6.06585 2.53363,-1.85151 6.77227,-3.65415 10.57254,-5.33504 3.80027,-1.68088 7.16196,-3.23992 10.98655,-5.77343 3.8246,-2.53352 8.11195,-6.04135 11.38899,-8.63926 3.27703,-2.59791 5.59022,-4.32049 9.22282,-6.06672 3.6326,-1.74624 8.69391,-3.56439 13.24931,-5.9761 4.5554,-2.4117 8.64788,-5.43234 11.3652,-7.37407 2.71732,-1.94172 4.10366,-2.83294 5.67421,-4.11188 1.57056,-1.27894 3.39892,-3.00848 5.85937,-5.17659 2.46045,-2.16812 5.57854,-4.799 9.71992,-7.40561 4.14138,-2.60662 9.30569,-5.18878 13.32521,-7.21072 4.01951,-2.02194 6.89398,-3.48354 9.08642,-4.77465 2.19243,-1.29111 3.70276,-2.41167 6.05358,-3.64354 2.35082,-1.23187 5.84873,-2.7041 7.71724,-3.73829 1.86851,-1.03419 2.3557,-1.73475 3.71991,-5.44682 1.3642,-3.71207 3.60532,-10.43542 4.72593,-14.62539 1.12061,-4.18997 1.12061,-5.84645 1.53473,-8.59926 0.414112,-2.75281 1.242353,-6.60169 2.650005,-10.41634 1.407652,-3.81466 3.415718,-7.63489 4.365817,-10.02213 0.950099,-2.38725 0.85266,-3.36165 0.121846,-7.45427 -0.730814,-4.09263 -2.094976,-11.3032 -3.239804,-15.20094 -1.144827,-3.89774 -2.070508,-4.48238 -5.354104,-8.17355 -3.2836,-3.69116 -8.92479,-10.48865 -13.19245,-16.50577 -4.26765,-6.01713 -7.16148,-11.25357 -9.88314,-16.76578 -2.72167,-5.51221 -5.27099,-11.29985 -6.82122,-14.43493 -1.55023,-3.13508 -2.10143,-3.61738 -3.54838,-4.13424 -1.44695,-0.51685 -3.78956,-1.06805 -7.47589,-3.75518 -3.68633,-2.68714 -8.71607,-7.51017 -12.43686,-12.8501 -3.72079,-5.33992 -6.13231,-11.19647 -8.06159,-16.39861 -1.92929,-5.20214 -3.3762,-9.74958 -4.75421,-13.1947 -1.37802,-3.44512 -2.68713,-5.787734 -4.03078,-9.887459 -1.34365,-4.099724 -2.72166,-9.956268 -3.6163,-14.015445 -0.89463,-4.059176 -1.31024,-6.34502 -1.27584,-8.481055 0.0344,-2.136036 0.51671,-4.134152 1.27468,-5.581205 0.75796,-1.447053 1.79147,-2.342756 2.41156,-3.582885 0.6201,-1.240129 0.8268,-2.824842 -0.27555,-5.89098 -1.10236,-3.066137 -3.51388,-7.613569 -6.58003,-12.781276 -3.06616,-5.167707 -6.78679,-10.955352 -9.30179,-17.156589 -2.515,-6.201238 -3.82411,-12.815689 -2.96286,-21.3941475 0.86124,-8.5784588 3.89287,-19.1202395 6.89013,-27.9053245 2.99726,-8.785084 5.95998,-15.81294 6.99366,-19.327003 1.03368,-3.514063 0.13797,-3.514063 -2.28691,-2.832378 -2.42488,0.681684 -6.46358,2.07434 -10.5374,3.316875 -4.07382,1.242536 -8.19069,2.340369 -13.81229,2.076615 -5.6216,-0.263754 -12.73053,-1.893745 -16.10251,-2.891499 -3.37198,-0.997754 -3.00658,-1.363153 -2.00764,-1.436214 0.99895,-0.07306 2.63107,0.146179 5.1524,0.2436 2.52133,0.09742 5.93173,0.07306 10.58461,-0.596886 4.65288,-0.669947 10.54801,-1.98539 14.64056,-3.118168 4.09256,-1.132778 6.38241,-2.082821 7.8318,-2.825801 1.4494,-0.74298 2.0584,-1.278901 1.5591,-1.473787 -0.4993,-0.194886 -2.10706,-0.04872 -4.43347,-0.377546 -2.32642,-0.328821 -5.37143,-1.132705 -8.95251,-1.230198 -3.58108,-0.09749 -7.69792,0.511507 -11.13281,1.20578 -3.43488,0.694273 -6.18756,1.473793 -8.35849,2.296938 -2.17094,0.823146 -3.79747,1.710346 -3.73661,1.16225 0.0609,-0.548096 1.79043,-2.521256 4.56192,-4.294538 2.77148,-1.773282 6.60885,-3.35653 10.6403,-4.645209 4.03146,-1.288678 8.26884,-2.287736 8.88898,-3.889596 0.62014,-1.60186 -2.37703,-3.80668 -5.09879,-9.422225 -2.72175,-5.615546 -5.16772,-14.641515 -5.63273,-18.103823 -0.46501,-3.462307 1.0508,-1.360842 2.54942,0.912951 1.49862,2.273793 2.97998,4.719765 4.13409,5.82201 1.15411,1.102246 1.98091,0.861096 2.17032,-1.033571 0.1894,-1.894667 -0.25845,-5.443043 0.3961,-13.401373 0.65455,-7.958328 2.41152,-20.325968 4.80588,-30.781958 2.39436,-10.45598 5.42598,-18.99965 9.49127,-26.09668 4.06528,-7.09702 9.16392,-12.74686 11.60994,-14.12475 2.44601,-1.3779 2.23931,1.51592 2.44636,2.69824 0.20705,1.18232 0.82778,0.65337 2.24658,-0.62209 1.41879,-1.27546 3.63556,-3.29735 8.20328,-5.67255 4.56772,-2.37519 11.48597,-5.10352 15.29888,-6.47947 3.8129,-1.37596 4.56722,-1.40111 5.02887,-1.29283 0.46165,0.10829 0.65891,0.35486 -0.413,0.80537 -1.07192,0.45051 -3.41048,1.10823 -6.21199,2.1192 -2.80151,1.01097 -6.06575,2.37513 -9.56158,4.76251 -3.49583,2.38739 -7.22292,5.79779 -10.71279,9.57836 -3.48987,3.78058 -6.76594,7.96124 -8.66608,10.71404 -1.90014,2.7528 -2.43606,4.0926 -2.21668,4.64062 0.21937,0.54802 1.19377,0.30442 1.81492,0.63348 0.62115,0.32905 0.88911,1.23037 -0.195,2.80148 -1.0841,1.57112 -3.5201,3.81224 -4.87214,5.83429 -1.35203,2.02206 -1.61999,3.8247 -1.2507,4.59412 0.36929,0.76943 1.40924,0.49706 2.35921,-0.0998 0.94998,-0.59682 1.82693,-1.5225 2.72844,-1.91225 0.9015,-0.38975 1.82718,-0.24359 1.24734,1.24751 -0.57984,1.4911 -2.66479,4.32701 -3.96242,6.27228 -1.29763,1.94526 -1.82093,3.02673 -1.16623,5.30063 0.6547,2.2739 2.48056,5.75337 4.11706,7.54467 1.63649,1.79131 3.0834,1.89466 3.73783,0.22388 0.65443,-1.67078 0.51663,-5.1158 0.86111,-8.37149 0.34449,-3.2557 1.1713,-6.32177 3.1006,-9.47416 1.92931,-3.15238 4.96092,-6.3907 9.21569,-10.42152 4.25476,-4.03082 9.73235,-8.85386 16.41599,-12.52293 6.68364,-3.66907 14.57275,-6.18394 19.88166,-7.61052 5.30891,-1.42659 8.03729,-1.76484 12.49532,-3.03023 4.45803,-1.26539 10.645471,-3.45779 15.49323,-5.35793 4.84776,-1.90013 8.355599,-3.50789 12.886713,-5.50548 4.531114,-1.99758 10.085199,-4.38487 16.467787,-5.70031 6.382587,-1.31545 13.593152,-1.55905 20.417169,-1.22443 6.824017,0.33462 13.261044,1.24738 16.479475,2.22065 3.21843,0.97327 3.21843,2.00678 4.114333,2.86799 0.895902,0.86121 2.687317,1.55021 5.236622,1.17115 2.549306,-0.37906 5.85653,-1.82597 8.9916883,-2.23932 3.1351579,-0.41335 6.0978817,0.20676 9.37073183,0.44788 3.27285017,0.24111 6.85567767,0.10331 10.40416287,-4e-5 3.548486,-0.10335 7.062414,-0.17225 11.43776,1.51599 4.375345,1.68823 9.611787,5.13326 12.47109,8.57843 2.859302,3.44518 3.341606,6.89021 3.996293,9.02616 0.654686,2.13595 1.481495,2.96276 4.306546,4.71974 2.825051,1.75698 7.648089,4.4441 10.335138,7.37252 2.687049,2.92843 3.238254,6.09786 4.134089,8.37162 0.895835,2.27376 2.136044,3.65178 5.744784,6.0783 3.608739,2.42652 9.482688,5.84161 15.840538,12.91412 6.357851,7.07251 13.210172,17.87011 18.102223,26.035041 4.892047,8.164936 7.854777,13.745883 11.058737,20.429446 3.20396,6.683563 6.64899,14.469325 8.64709,22.117492 1.9981,7.648168 2.5493,15.158326 3.58428,22.065906 1.03497,6.907581 2.55359,13.212153 3.45906,17.826151 0.90547,4.6139977 1.19779,7.5372007 1.38587,9.4491504 0.18807,1.91194962 0.27189,2.81255206 1.08909,3.9863319 0.8172,1.1737798 2.36746,2.6206898 3.6938,4.1365723 1.32634,1.5158825 2.42875,3.1005958 3.34165,5.1160064 0.9129,2.01541 1.63636,4.461379 2.222,8.113214 0.58564,3.651836 1.03349,8.509326 0.73959,14.316519 -0.2939,5.807193 -1.32498,12.534611 -2.10963,17.489144 -0.78464,4.954533 -1.32056,8.121334 -1.68849,11.629172 -0.36792,3.507839 -0.55775,7.1621 -1.8489,11.400801 -1.29115,4.238701 -3.67843,8.964547 -6.94275,13.373785 -3.26432,4.409239 -7.40553,8.501724 -10.91348,12.277649 -3.50795,3.775929 -6.38244,7.235049 -8.35566,10.231469 -1.97323,2.99641 -3.04507,5.52985 -4.579803,9.06217 -1.534733,3.53232 -3.532253,8.06328 -5.018253,11.76612 -1.486,3.70284 -2.460403,6.57733 -2.752684,9.98791 -0.292281,3.41057 0.09748,7.35689 1.67418,16.63465 1.576703,9.27775 4.340202,23.88626 5.859859,31.39737 1.519661,7.51111 1.795261,7.92451 4.758151,8.64787 2.96289,0.72336 8.61273,1.75687 13.50481,3.0316 4.89208,1.27473 9.02612,2.79054 12.47121,5.09887 3.44508,2.30832 6.2011,5.40884 9.92183,10.43877 3.72073,5.02992 8.40597,11.98887 11.29991,15.60611 2.89395,3.61724 3.99636,3.89284 5.78781,5.23654 1.79145,1.34371 4.27187,3.75523 5.82218,5.23662 1.55031,1.48139 2.1704,2.03259 4.58203,2.68707 2.41162,0.65448 6.61455,1.41239 13.78045,3.16943 7.16591,1.75704 17.29429,4.51306 29.9724,9.09513 12.6781,4.58206 27.90512,10.98981 39.85969,15.98523 11.95456,4.99542 20.63604,8.57825 27.62963,11.4377 6.99359,2.85945 12.29893,4.99537 17.22545,7.5448 4.92653,2.54944 9.47397,5.51216 15.39961,8.23377 5.92565,2.7216 13.22909,5.20201 18.56903,6.85566 5.33994,1.65364 8.71605,2.48044 12.39961,4.61416 3.68356,2.13373 7.68525,5.58346 9.55604,7.49673 1.87078,1.91326 1.57398,2.35847 1.43619,46.49992 -0.13778,44.14145 -0.13778,132.00725 -0.0967,175.78754 0.0411,43.78029 0.17405,43.28411 -0.66548,43.32263 -0.83952,0.0385 -2.6263,0.51729 -3.5198,0.7567 -0.8935,0.23941 -617.47122,0.23941 -617.6513,0.25265 -0.18007,0.0132 -0.54048,0.0397 -0.93385,0.0956 -0.39338,0.0559 -0.81968,0.14114 -1.03295,0.18379 -0.21326,0.0427 -0.21326,0.0426 -0.28484,-1.70824 z"
         id="path853"
         inkscape:path-effect="#path-effect849"
         inkscape:original-d="m -270.71545,585.80375 c -0.1429,-3.50177 -0.28607,-7.00379 -0.4295,-10.50608 0.55711,-1.93749 1.1139,-3.87517 1.67045,-5.81313 -0.82383,-5.81295 -1.6479,-11.62595 -2.47224,-17.43933 -0.3171,-3.15327 -0.63444,-6.30666 -0.95208,-9.46038 0.25226,-4.66154 0.50425,-9.32315 0.75597,-13.98514 -0.37772,-21.35582 -0.7557,-42.71103 -1.13392,-64.06695 2.12799,-20.76418 4.25566,-41.52781 6.3831,-62.2921 1.36448,-2.24094 2.72863,-4.48206 4.09256,-6.72351 6.62645,-8.28246 13.25238,-16.56487 19.87817,-24.84771 1.46192,-2.72817 2.92352,-5.45647 4.38489,-8.18512 0.82854,-1.89989 1.65678,-3.79997 2.48477,-5.70037 4.23908,-1.80245 8.47772,-3.60508 12.71618,-5.40803 3.36209,-1.55882 6.72377,-3.11788 10.08525,-4.6772 4.2878,-3.50774 8.57516,-7.01556 12.86235,-10.52375 2.2902,-1.65629 4.58004,-3.41021 6.86966,-5.11569 4.96991,-1.80247 10.03679,-3.60511 15.05479,-5.40806 4.09291,-3.02048 8.18539,-6.04112 12.27769,-9.06208 1.36448,-0.82801 2.72865,-1.75371 4.09257,-2.63094 1.75425,-1.705 3.60562,-3.41021 5.40803,-5.11572 3.11847,-2.63072 6.23655,-5.26161 9.35443,-7.89278 5.1648,-2.58202 10.32912,-5.16417 15.49329,-7.74666 2.87486,-1.4614 5.74934,-2.92298 8.62361,-4.38489 1.51065,-1.12035 3.02097,-2.24091 4.53106,-3.36174 3.26463,-1.16906 6.62632,-2.96495 9.93908,-4.18325 0.48749,-0.70035 0.97469,-1.40091 1.46163,-2.10177 2.24148,-6.72338 4.4826,-13.44673 6.7235,-20.1705 2.6e-4,-1.65628 2.6e-4,-3.31276 0,-4.96954 0.828539,-3.84877 1.65678,-7.69765 2.484775,-11.54688 1.949143,-3.80005 3.995383,-7.60021 5.99268,-11.40071 -0.09718,-0.97418 -0.194619,-1.94858 -0.292322,-2.92326 -1.363951,-7.21059 -2.728116,-14.42116 -4.092567,-21.63213 -0.925454,-0.5844 -1.851136,-1.16904 -2.777096,-1.75396 -5.64116,-6.7975 -11.28236,-13.59499 -16.92393,-20.39288 -2.89367,-5.23639 -5.78749,-10.47283 -8.68164,-15.70964 -2.54916,-5.78761 -5.09848,-11.57525 -7.64811,-17.36328 -0.55096,-0.48206 -1.10217,-0.96436 -1.65365,-1.44694 -2.34245,-0.55096 -4.68506,-1.10216 -7.02799,-1.65364 -5.02968,-4.82297 -10.05942,-9.64601 -15.08952,-14.4694 -2.41135,-5.85652 -4.82287,-11.71306 -7.2347,-17.56999 -1.4467,-4.54735 -2.89362,-9.09479 -4.34082,-13.64258 -1.3089,-2.34245 -2.61801,-4.685063 -3.92741,-7.027993 -1.3778,-5.856515 -2.75581,-11.713059 -4.13411,-17.569987 -0.34426,-2.273544 -0.82656,-4.547262 -1.24024,-6.821289 0.48259,-1.99793 0.96489,-3.996047 1.44694,-5.994466 1.03382,-0.895477 2.06732,-1.791184 3.10059,-2.687175 0.20697,-1.58451 0.41367,-3.169224 0.62012,-4.754232 -2.41136,-4.547351 -4.82287,-9.094787 -7.2347,-13.642578 -3.72052,-5.787612 -7.44115,-11.575256 -11.16211,-17.363281 -1.3089,-6.614451 -2.61801,-13.228902 -3.92741,-19.8437499 3.03201,-10.5419385 6.06363,-21.0837201 9.09505,-31.6259761 2.9631,-7.027871 5.92583,-14.055725 8.88835,-21.083985 -0.89548,2.65e-4 -1.79119,2.65e-4 -2.68718,0 -3.99613,1.240523 -7.99236,2.756342 -11.98893,4.134115 -4.13394,1.17162 -8.26797,2.205125 -12.40234,3.307291 -7.10895,-1.629791 -14.21788,-3.259783 -21.32722,-4.890071 0.36568,-0.365149 0.73108,-0.730549 1.09623,-1.096222 1.63245,0.219514 3.26457,0.438753 4.89646,0.657733 3.4108,-0.0241 6.8212,-0.04846 10.23141,-0.07308 5.89562,-1.31523 11.79075,-2.63067 17.68572,-3.946403 2.2902,-0.949812 4.58005,-1.899854 6.86967,-2.850179 0.60929,-0.535675 1.21829,-1.071597 1.82704,-1.607796 -1.60757,0.146431 -3.21533,0.292595 -4.82339,0.438494 -3.04485,-0.803648 -6.08986,-1.607529 -9.13518,-2.411691 -4.11675,0.609288 -8.23359,1.21829 -12.35078,1.827036 -2.75253,0.779817 -5.50521,1.559335 -8.25821,2.338607 -1.5832,0.877263 -3.21532,1.754222 -4.82338,2.630937 1.7299,-1.972974 3.45946,-3.946136 5.18879,-5.919602 3.82564,-1.543587 7.65086,-3.156273 11.47589,-4.734806 4.23782,-0.998834 8.4752,-1.99789 12.71241,-2.997237 -2.99703,-2.204638 -5.99421,-4.409454 -8.9917,-6.614581 -2.4458,-9.026065 -4.89177,-18.052034 -7.33806,-27.07845 1.51614,2.101815 3.03195,4.203281 4.54753,6.304526 1.48168,2.446332 2.96305,4.892299 4.44417,7.338052 0.82711,-0.240896 1.65391,-0.482047 2.48047,-0.723469 -0.44761,-3.548256 -0.89546,-7.096633 -1.34359,-10.645346 1.7573,-12.367876 3.51427,-24.735516 5.271,-37.103676 3.03201,-8.54374 6.06363,-17.08741 9.09505,-25.63151 5.09911,-5.64981 10.19775,-11.29965 15.29623,-16.94987 -0.20645,2.8942 -0.41315,5.78802 -0.62012,8.68164 0.62103,-0.52871 1.24176,-1.05767 1.86225,-1.5869 2.21711,-2.0217 4.43388,-4.04358 6.65042,-6.06577 6.91878,-2.72816 13.83703,-5.45649 20.75515,-8.18513 0.70673,-0.0485 1.46189,-0.0485 2.19244,-0.0731 0.21951,0.21951 0.39003,0.48748 0.58465,0.73082 -2.33839,0.65801 -4.67695,1.31573 -7.01582,1.9732 -3.26411,1.36448 -6.52835,2.72864 -9.79292,4.09256 -3.72697,3.4108 -7.45405,6.82121 -11.18148,10.23141 -3.2641,4.14163 -6.52835,8.33156 -9.79292,12.49694 -0.53568,1.34012 -1.0716,2.67992 -1.60779,4.01948 0.9747,-0.24334 1.9491,-0.48694 2.92326,-0.73081 0.26824,0.90162 0.53619,1.80294 0.80389,2.70402 -2.43583,2.24147 -4.87183,4.48259 -7.30815,6.7235 -0.2677,1.80297 -0.53566,3.60561 -0.80389,5.40803 0.99906,-0.29207 2.04654,-0.53567 3.06942,-0.8039 0.87726,-0.92545 1.75422,-1.85113 2.63093,-2.7771 0.92599,0.14643 1.85167,0.29259 2.7771,0.43849 -2.08478,2.8363 -4.16974,5.67221 -6.255,8.50792 -0.48206,1.06826 -1.03327,2.13622 -1.5503,3.20394 1.8262,3.47988 3.65207,6.95935 5.47771,10.43863 1.44723,0.10363 2.89414,0.20698 4.34082,0.31006 -0.13755,-3.4449 -0.27535,-6.88992 -0.41342,-10.33528 0.82711,-3.06593 1.65391,-6.13201 2.48047,-9.19841 3.03201,-3.23819 6.06363,-6.47651 9.09505,-9.71517 5.47808,-4.82296 10.95567,-9.646 16.43311,-14.4694 7.88969,-2.5147 15.7788,-5.02957 23.66781,-7.54476 2.72875,-0.338 5.45713,-0.67626 8.1853,-1.01479 6.18796,-2.19222 12.375404,-4.38462 18.562709,-6.57733 3.508248,-1.60756 7.016086,-3.21532 10.523736,-4.82338 5.55457,-2.38711 11.108653,-4.7744 16.662583,-7.16199 7.211118,-0.24334 14.421683,-0.48694 21.632127,-0.73081 6.43755,0.91305 12.874577,1.82581 19.311469,2.73832 2.65e-4,1.03381 2.65e-4,2.06732 0,3.10058 1.79175,0.6893 3.583164,1.37831 5.374349,2.06706 3.307623,-1.4467 6.614848,-2.89361 9.9218749,-4.34082 2.9631061,0.62039 5.9258287,1.2405 8.88834637,1.86035 3.58323563,-0.13754 7.16606313,-0.27534 10.74869773,-0.41341 3.514332,-0.0686 7.028259,-0.13754 10.541992,-0.2067 5.236915,3.44542 10.473354,6.89045 15.709636,10.33528 0.482587,3.44543 0.96489,6.89046 1.44694,10.33529 0.827103,0.8271 1.65391,1.65391 2.480469,2.48047 4.823494,2.68749 9.646531,5.37461 14.469401,8.06152 0.551492,3.16981 1.102696,6.33924 1.653646,9.50846 1.240522,1.37833 2.480733,2.75634 3.720703,4.13412 5.994849,3.44543 11.851394,6.89045 17.77669,10.33528 6.821694,10.68028 13.642845,21.49766 20.463867,32.246096 2.963104,5.58143 5.925834,11.162374 8.888344,16.743164 3.44543,7.786335 6.89046,15.572097 10.33529,23.357747 0.55149,7.510722 1.1027,15.02088 1.65365,22.530925 1.51894,6.305089 3.03756,12.609661 4.55595,18.914096 0.29259,2.9235828 0.58492,5.8467849 0.87698,8.7697808 0.0841,0.90090412 0.16791,1.80150763 0.25147,2.7018646 1.55059,1.4472335 3.10085,2.8941447 4.65088,4.3408202 1.10272,1.5850402 2.20513,3.1697526 3.30729,4.7542314 0.72375,2.446332 1.44721,4.892301 2.17042,7.338054 0.44813,4.857946 0.89598,9.715436 1.34358,14.572754 -1.13054,6.742544 -2.06642,13.484553 -3.10002,20.226433 -0.53568,3.167192 -1.0716,6.333993 -1.6078,9.500595 -0.19462,3.849301 -0.3895,7.5033 -0.58465,11.254552 -2.38711,4.726297 -4.7744,9.452139 -7.16199,14.177814 -4.1411,4.092911 -8.28231,8.185391 -12.42385,12.277691 -2.87434,3.459522 -5.74882,6.918652 -8.62362,10.377572 -1.07162,2.53381 -2.14346,5.06725 -3.21559,7.60048 -1.997337,4.53141 -3.994857,9.06237 -5.992683,13.59316 -0.974175,2.87486 -1.948577,5.74935 -2.923262,8.62362 0.390043,3.94675 0.779801,7.89307 1.169302,11.83921 2.763877,14.60935 5.527376,29.21786 8.290663,43.8264 0.27588,0.41368 0.55148,0.82708 0.82682,1.24023 5.65034,1.03382 11.30018,2.06732 16.94987,3.10059 4.13446,1.51613 8.26849,3.03195 12.40234,4.54752 2.7564,3.10092 5.51242,6.20144 8.26823,9.30176 4.68569,6.9595 9.37093,13.91845 14.05599,20.87728 1.10272,0.27588 2.20513,0.55148 3.3073,0.82682 2.48078,2.41188 4.9612,4.8234 7.4414,7.2347 0.6204,0.5515 1.2405,1.1027 1.86035,1.65365 4.20337,0.7582 8.4063,1.51611 12.60905,2.27376 10.12905,2.7564 20.25743,5.51242 30.38574,8.26823 15.2279,6.40827 30.45491,12.81603 45.68197,19.22363 8.68208,3.58323 17.36356,7.16605 26.04494,10.7487 5.30579,2.13627 10.61114,4.27217 15.91633,6.40789 4.54787,2.96309 9.09531,5.92582 13.64257,8.88833 7.30401,2.48079 14.60746,4.9612 21.91081,7.44141 3.37653,0.82711 6.75264,1.65391 10.12859,2.48047 3.92774,3.51433 7.99288,6.89046 11.98894,10.33528 -0.20646,0.41368 -0.55097,0.82709 -0.82683,1.24024 2.7e-4,87.86955 2.7e-4,175.73535 0,263.60263 0.16471,-0.28459 0.21543,-0.8028 0.32277,-1.20457 -1.7866,0.47903 -3.57338,0.95779 -5.36046,1.43632 h -616.57772 c -0.36013,0.0268 -0.72054,0.0532 -1.0812,0.0795 -0.42605,0.0855 -0.85235,0.17079 -1.27894,0.2558 z"
         sodipodi:nodetypes="sccccccccccccccccccccccccccccccccccccccccccccccccccccccccccccccccccccccccccccccccccccccccccccccccccccccccccccccccccccccccccccccccccccccccccccccccccccccccccccccccccccccccss" />
    </clipPath>
  </defs>
  <sodipodi:namedview
     id="base"
     pagecolor="#ffffff"
     bordercolor="#666666"
     borderopacity="1.0"
     inkscape:pageopacity="0.0"
     inkscape:pageshadow="2"
     inkscape:zoom="0.32"
     inkscape:cx="982.073"
     inkscape:cy="771.93942"
     inkscape:document-units="mm"
     inkscape:current-layer="layer1"
     inkscape:document-rotation="0"
     showgrid="false"
     inkscape:window-width="1624"
     inkscape:window-height="997"
     inkscape:window-x="3124"
     inkscape:window-y="158"
     inkscape:window-maximized="0" />
  <metadata
     id="metadata5">
    <rdf:RDF>
      <cc:Work
         rdf:about="">
        <dc:format>image/svg+xml</dc:format>
        <dc:type
           rdf:resource="http://purl.org/dc/dcmitype/StillImage" />
        <dc:title></dc:title>
      </cc:Work>
    </rdf:RDF>
  </metadata>
  <g
     inkscape:label="Layer 1"
     inkscape:groupmode="layer"
     id="layer1">
    <rect
       y="-10.748698"
       x="-10.748698"
       height="267.89062"
       width="453.09897"
       id="rect848"
       style="opacity:1;fill:#6785b8;fill-rule:evenodd;stroke-width:2.26;stroke-linejoin:round;fill-opacity:1" />
    <text
       id="text1016"
       y="148.00131"
       x="115.75519"
       style="font-size:63.5px;line-height:1.25;font-family:Sans;-inkscape-font-specification:'Sans, Normal';opacity:1;stroke-width:0.264583"
       xml:space="preserve"><tspan
         style="font-style:normal;font-variant:normal;font-weight:normal;font-stretch:normal;font-size:63.5px;font-family:Georgia;-inkscape-font-specification:Georgia;fill:#ffffff;stroke-width:0.264583"
         y="148.00131"
         x="115.75519"
         id="tspan1014"
         sodipodi:role="line">Gallery</tspan></text>
  </g>
</svg>
